<svg xmlns="http://www.w3.org/2000/svg" width="128" height="128" viewBox="0 0 24 24"><path fill="#a39998" d="m12 19.654l-.758-.685q-2.448-2.236-4.05-3.828q-1.601-1.593-2.528-2.81t-1.296-2.2T3 8.15q0-1.908 1.296-3.204T7.5 3.65q1.32 0 2.475.675T12 6.289Q12.87 5 14.025 4.325T16.5 3.65q1.908 0 3.204 1.296T21 8.15q0 .996-.368 1.98q-.369.986-1.296 2.202t-2.519 2.809q-1.592 1.592-4.06 3.828zm0-1.354q2.4-2.17 3.95-3.716t2.45-2.685t1.25-2.015Q20 9.006 20 8.15q0-1.5-1-2.5t-2.5-1q-1.194 0-2.204.682T12.49 7.385h-.978q-.817-1.39-1.817-2.063q-1-.672-2.194-.672q-1.48 0-2.49 1T4 8.15q0 .856.35 1.734t1.25 2.015t2.45 2.675T12 18.3m0-6.825"/></svg>